<svg width="16" height="16" viewBox="0 0 16 16" fill="none" xmlns="http://www.w3.org/2000/svg">
<path d="M15.0961 6.27648L8.84609 0.379604C8.84304 0.376938 8.84017 0.374067 8.8375 0.37101C8.60739 0.161739 8.30752 0.0457764 7.99648 0.0457764C7.68545 0.0457764 7.38558 0.161739 7.15547 0.37101L7.14688 0.379604L0.903906 6.27648C0.776561 6.39358 0.674909 6.53584 0.605384 6.69425C0.535859 6.85267 0.499974 7.02379 0.5 7.19679V14.4194C0.5 14.751 0.631696 15.0689 0.866116 15.3033C1.10054 15.5378 1.41848 15.6694 1.75 15.6694H5.5C5.83152 15.6694 6.14946 15.5378 6.38388 15.3033C6.6183 15.0689 6.75 14.751 6.75 14.4194V10.6694H9.25V14.4194C9.25 14.751 9.3817 15.0689 9.61612 15.3033C9.85054 15.5378 10.1685 15.6694 10.5 15.6694H14.25C14.5815 15.6694 14.8995 15.5378 15.1339 15.3033C15.3683 15.0689 15.5 14.751 15.5 14.4194V7.19679C15.5 7.02379 15.4641 6.85267 15.3946 6.69425C15.3251 6.53584 15.2234 6.39358 15.0961 6.27648ZM14.25 14.4194H10.5V10.6694C10.5 10.3379 10.3683 10.02 10.1339 9.78556C9.89946 9.55114 9.58152 9.41945 9.25 9.41945H6.75C6.41848 9.41945 6.10054 9.55114 5.86612 9.78556C5.6317 10.02 5.5 10.3379 5.5 10.6694V14.4194H1.75V7.19679L1.75859 7.18898L8 1.29445L14.2422 7.18742L14.2508 7.19523L14.25 14.4194Z" fill="#1C2F43"/>
</svg>
