<svg width="46" height="40" viewBox="0 0 46 40" fill="none" xmlns="http://www.w3.org/2000/svg">
<g clip-path="url(#clip0_3010_9500)">
<path d="M27.2618 30.7134V22.2666C27.2618 22.1909 27.292 22.1233 27.3403 22.0731L31.8855 26.5973C31.818 26.6648 31.7751 26.7598 31.7751 26.8629V30.7134C31.7751 30.8677 31.6491 30.9927 31.4957 30.9927H27.5421C27.3869 30.9927 27.2628 30.8677 27.2628 30.7134H27.2618Z" fill="#FFD719"/>
<path d="M27.3403 22.0722C27.3905 22.0193 27.4627 21.9864 27.5421 21.9864H36.0071C36.1605 21.9864 36.2864 22.1115 36.2864 22.2657V26.2093C36.2864 26.3645 36.1605 26.4886 36.0071 26.4886H32.1475C32.0452 26.4886 31.953 26.5297 31.8855 26.5964L27.3403 22.0722Z" fill="#0F5EBB"/>
<path d="M45.3129 22.3598V39.6266C45.3129 39.8329 45.1458 39.9991 44.9395 39.9991H27.6352C27.4289 39.9991 27.2618 39.832 27.2618 39.6266V35.8693C27.2618 35.663 27.4289 35.4968 27.6352 35.4968H40.4911C40.6974 35.4968 40.8636 35.3298 40.8636 35.1244V22.3598C40.8636 22.1534 41.0306 21.9873 41.236 21.9873H44.9386C45.1449 21.9873 45.312 22.1544 45.312 22.3598H45.3129Z" fill="#1C2F43"/>
<path d="M20.629 39.9991H15.3453C15.2467 39.9991 15.1518 39.9598 15.0815 39.8895L5.7593 30.5244C5.61689 30.3811 5.61415 30.1483 5.75474 30.0032L6.60279 29.1204L13.6291 22.095C13.6994 22.0247 13.7944 21.9855 13.8929 21.9855H19.1456C19.477 21.9855 19.644 22.3871 19.4094 22.6227L12.0462 29.9868C11.9011 30.1319 11.9011 30.3683 12.0462 30.5144L20.8937 39.3619C21.1283 39.5965 20.9631 39.9982 20.6299 39.9982H20.629V39.9991Z" fill="#1C2F43"/>
<path d="M4.14254 21.9864H0.375135C0.168827 21.9864 0.00268555 22.1534 0.00268555 22.3588V39.6257C0.00268555 39.832 0.16974 39.9982 0.375135 39.9982H4.14254C4.34885 39.9982 4.5159 39.8311 4.5159 39.6257V22.3588C4.5159 22.1525 4.34885 21.9864 4.14254 21.9864Z" fill="#1C2F43"/>
<path d="M45.3128 9.3788V17.6402C45.3128 17.8466 45.1458 18.0127 44.9395 18.0127H41.141C40.9347 18.0127 40.7686 17.8456 40.7686 17.6402V13.8829C40.7686 13.6766 40.6015 13.5104 40.3961 13.5104H35.6136C35.2813 13.5104 35.1152 13.1088 35.3498 12.8742L37.6046 10.6194L39.1081 9.11681C39.1784 9.04652 39.2733 9.00726 39.3719 9.00726H44.9395C45.1458 9.00726 45.3128 9.17432 45.3128 9.38063V9.3788Z" fill="#1C2F43"/>
<path d="M45.3129 0.279335V4.22292C45.3129 4.37811 45.1879 4.50226 45.0336 4.50226H37.6412C37.5663 4.50226 37.496 4.53238 37.4431 4.58441L35.6037 6.42384L34.8925 7.13405L34.6716 7.35497L33.0212 9.00634L29.2036 12.824L28.5171 13.5104L24.0961 17.9314C24.044 17.9835 23.9719 18.0136 23.898 18.0136H18.5331C18.2008 18.0136 18.0346 17.6119 18.2692 17.3764L22.1361 13.5095L24.715 10.9307L26.6402 9.00543L31.1434 4.50226L34.6716 0.974026L34.7036 0.942076L35.5644 0.0812425C35.6164 0.0292091 35.6886 -0.000915527 35.7625 -0.000915527H45.0345C45.1897 -0.000915527 45.3138 0.124147 45.3138 0.278422L45.3129 0.279335Z" fill="#1C2F43"/>
<path d="M28.3044 0C28.6366 0 28.8028 0.400749 28.5682 0.635355L24.7962 4.4201C24.7442 4.47213 24.6721 4.50226 24.599 4.50226H14.1978C13.9915 4.50226 13.8254 4.66931 13.8254 4.87562V17.6402C13.8254 17.8465 13.6583 18.0127 13.452 18.0127H9.54129C9.33498 18.0127 9.16884 17.8456 9.16884 17.6402V4.87562C9.16884 4.66931 9.00178 4.50226 8.79639 4.50226H0.37245C0.166142 4.50226 0 4.33521 0 4.12981V0.37245C0 0.167055 0.167055 0 0.37245 0H28.3044Z" fill="#1C2F43"/>
</g>
<defs>
<clipPath id="clip0_3010_9500">
<rect width="45.3129" height="40" fill="white"/>
</clipPath>
</defs>
</svg>
